<mxfile host="app.diagrams.net" modified="2023-06-26T07:02:05.903Z" agent="Mozilla/5.0 (X11; Ubuntu; Linux x86_64; rv:109.0) Gecko/20100101 Firefox/114.0" etag="QVAnHBXl1b9rHDwyh3vV" version="21.5.0" type="github">
  <diagram name="Page-1" id="r-T6OLwQH29qr_7euo9l">
    <mxGraphModel dx="1360" dy="795" grid="1" gridSize="10" guides="1" tooltips="1" connect="1" arrows="1" fold="1" page="1" pageScale="1" pageWidth="850" pageHeight="1100" math="0" shadow="0">
      <root>
        <mxCell id="0" />
        <mxCell id="1" parent="0" />
        <mxCell id="oR3EOA6jBZrTbAOyoPTf-31" style="edgeStyle=orthogonalEdgeStyle;rounded=0;orthogonalLoop=1;jettySize=auto;html=1;exitX=1;exitY=0.5;exitDx=0;exitDy=0;entryX=-0.033;entryY=0.58;entryDx=0;entryDy=0;entryPerimeter=0;startArrow=classic;startFill=1;" parent="1" source="oR3EOA6jBZrTbAOyoPTf-1" target="oR3EOA6jBZrTbAOyoPTf-2" edge="1">
          <mxGeometry relative="1" as="geometry">
            <Array as="points">
              <mxPoint x="354" y="320" />
              <mxPoint x="577" y="320" />
            </Array>
          </mxGeometry>
        </mxCell>
        <mxCell id="oR3EOA6jBZrTbAOyoPTf-1" value="" style="whiteSpace=wrap;html=1;aspect=fixed;" parent="1" vertex="1">
          <mxGeometry x="114" y="271" width="240" height="240" as="geometry" />
        </mxCell>
        <mxCell id="oR3EOA6jBZrTbAOyoPTf-2" value="MongoDB&lt;br&gt;Atlas" style="shape=cylinder3;whiteSpace=wrap;html=1;boundedLbl=1;backgroundOutline=1;size=15;" parent="1" vertex="1">
          <mxGeometry x="600" y="220" width="90" height="100" as="geometry" />
        </mxCell>
        <mxCell id="oR3EOA6jBZrTbAOyoPTf-4" value="SMS" style="shape=message;html=1;html=1;outlineConnect=0;labelPosition=center;verticalLabelPosition=bottom;align=center;verticalAlign=top;" parent="1" vertex="1">
          <mxGeometry x="620" y="146" width="60" height="40" as="geometry" />
        </mxCell>
        <mxCell id="oR3EOA6jBZrTbAOyoPTf-30" style="edgeStyle=orthogonalEdgeStyle;rounded=0;orthogonalLoop=1;jettySize=auto;html=1;exitX=1;exitY=0.5;exitDx=0;exitDy=0;exitPerimeter=0;entryX=0;entryY=0.5;entryDx=0;entryDy=0;" parent="1" source="oR3EOA6jBZrTbAOyoPTf-5" target="oR3EOA6jBZrTbAOyoPTf-4" edge="1">
          <mxGeometry relative="1" as="geometry" />
        </mxCell>
        <mxCell id="oR3EOA6jBZrTbAOyoPTf-5" value="&lt;font color=&quot;#ffffff&quot;&gt;SNS&lt;/font&gt;" style="sketch=0;points=[[0,0,0],[0.25,0,0],[0.5,0,0],[0.75,0,0],[1,0,0],[0,1,0],[0.25,1,0],[0.5,1,0],[0.75,1,0],[1,1,0],[0,0.25,0],[0,0.5,0],[0,0.75,0],[1,0.25,0],[1,0.5,0],[1,0.75,0]];outlineConnect=0;fontColor=#232F3E;gradientColor=#FF4F8B;gradientDirection=north;fillColor=#BC1356;strokeColor=#ffffff;dashed=0;verticalLabelPosition=bottom;verticalAlign=top;align=center;html=1;fontSize=12;fontStyle=0;aspect=fixed;shape=mxgraph.aws4.resourceIcon;resIcon=mxgraph.aws4.sns;" parent="1" vertex="1">
          <mxGeometry x="431" y="131" width="70" height="70" as="geometry" />
        </mxCell>
        <mxCell id="oR3EOA6jBZrTbAOyoPTf-6" value="Amazon EKS" style="sketch=0;outlineConnect=0;fontColor=#232F3E;gradientColor=none;strokeColor=#ffffff;fillColor=#232F3E;dashed=0;verticalLabelPosition=middle;verticalAlign=bottom;align=center;html=1;whiteSpace=wrap;fontSize=10;fontStyle=1;spacing=3;shape=mxgraph.aws4.productIcon;prIcon=mxgraph.aws4.eks;" parent="1" vertex="1">
          <mxGeometry x="304" y="271" width="50" height="80" as="geometry" />
        </mxCell>
        <mxCell id="oR3EOA6jBZrTbAOyoPTf-8" value="OpenSearch" style="outlineConnect=0;dashed=0;verticalLabelPosition=bottom;verticalAlign=top;align=center;html=1;shape=mxgraph.aws3.elasticsearch_service;fillColor=#F58534;gradientColor=none;" parent="1" vertex="1">
          <mxGeometry x="485" y="521" width="50.5" height="60" as="geometry" />
        </mxCell>
        <mxCell id="oR3EOA6jBZrTbAOyoPTf-10" style="edgeStyle=orthogonalEdgeStyle;rounded=0;orthogonalLoop=1;jettySize=auto;html=1;exitX=1;exitY=0.5;exitDx=0;exitDy=0;entryX=0.5;entryY=0;entryDx=0;entryDy=0;entryPerimeter=0;" parent="1" source="oR3EOA6jBZrTbAOyoPTf-9" target="oR3EOA6jBZrTbAOyoPTf-8" edge="1">
          <mxGeometry relative="1" as="geometry">
            <mxPoint x="477.5" y="511" as="targetPoint" />
          </mxGeometry>
        </mxCell>
        <mxCell id="267FY8_DbEdwIJE1v3pF-2" value="&lt;div&gt;Transaction&amp;nbsp; Logs&lt;/div&gt;" style="edgeLabel;html=1;align=center;verticalAlign=middle;resizable=0;points=[];" vertex="1" connectable="0" parent="oR3EOA6jBZrTbAOyoPTf-10">
          <mxGeometry x="-0.5033" y="-1" relative="1" as="geometry">
            <mxPoint y="14" as="offset" />
          </mxGeometry>
        </mxCell>
        <mxCell id="oR3EOA6jBZrTbAOyoPTf-9" value="Maint &amp;amp; Auth&lt;br&gt;Sink" style="rounded=0;whiteSpace=wrap;html=1;" parent="1" vertex="1">
          <mxGeometry x="269" y="465" width="80" height="40" as="geometry" />
        </mxCell>
        <mxCell id="oR3EOA6jBZrTbAOyoPTf-12" style="edgeStyle=orthogonalEdgeStyle;rounded=0;orthogonalLoop=1;jettySize=auto;html=1;exitX=1;exitY=0.5;exitDx=0;exitDy=0;" parent="1" source="oR3EOA6jBZrTbAOyoPTf-11" target="oR3EOA6jBZrTbAOyoPTf-8" edge="1">
          <mxGeometry relative="1" as="geometry">
            <Array as="points">
              <mxPoint x="565" y="436" />
            </Array>
          </mxGeometry>
        </mxCell>
        <mxCell id="267FY8_DbEdwIJE1v3pF-1" value="&lt;div&gt;App Logs&lt;/div&gt;" style="edgeLabel;html=1;align=center;verticalAlign=middle;resizable=0;points=[];" vertex="1" connectable="0" parent="oR3EOA6jBZrTbAOyoPTf-12">
          <mxGeometry x="-0.7428" y="2" relative="1" as="geometry">
            <mxPoint y="-7" as="offset" />
          </mxGeometry>
        </mxCell>
        <mxCell id="oR3EOA6jBZrTbAOyoPTf-11" value="Fluent Bit" style="rounded=0;whiteSpace=wrap;html=1;" parent="1" vertex="1">
          <mxGeometry x="274" y="421" width="70" height="30" as="geometry" />
        </mxCell>
        <mxCell id="oR3EOA6jBZrTbAOyoPTf-24" style="edgeStyle=orthogonalEdgeStyle;rounded=0;orthogonalLoop=1;jettySize=auto;html=1;entryX=0;entryY=0.25;entryDx=0;entryDy=0;" parent="1" source="oR3EOA6jBZrTbAOyoPTf-13" target="oR3EOA6jBZrTbAOyoPTf-23" edge="1">
          <mxGeometry relative="1" as="geometry">
            <Array as="points">
              <mxPoint x="214" y="311" />
              <mxPoint x="214" y="375" />
            </Array>
          </mxGeometry>
        </mxCell>
        <mxCell id="oR3EOA6jBZrTbAOyoPTf-13" value="Auth Module" style="whiteSpace=wrap;html=1;aspect=fixed;" parent="1" vertex="1">
          <mxGeometry x="124" y="281" width="60" height="60" as="geometry" />
        </mxCell>
        <mxCell id="oR3EOA6jBZrTbAOyoPTf-25" style="edgeStyle=orthogonalEdgeStyle;rounded=0;orthogonalLoop=1;jettySize=auto;html=1;entryX=0;entryY=0.5;entryDx=0;entryDy=0;" parent="1" source="oR3EOA6jBZrTbAOyoPTf-14" target="oR3EOA6jBZrTbAOyoPTf-23" edge="1">
          <mxGeometry relative="1" as="geometry" />
        </mxCell>
        <mxCell id="oR3EOA6jBZrTbAOyoPTf-14" value="APIs" style="whiteSpace=wrap;html=1;aspect=fixed;" parent="1" vertex="1">
          <mxGeometry x="124" y="361" width="60" height="60" as="geometry" />
        </mxCell>
        <mxCell id="oR3EOA6jBZrTbAOyoPTf-15" value="UI" style="whiteSpace=wrap;html=1;aspect=fixed;" parent="1" vertex="1">
          <mxGeometry x="124" y="441" width="60" height="60" as="geometry" />
        </mxCell>
        <mxCell id="oR3EOA6jBZrTbAOyoPTf-20" style="edgeStyle=orthogonalEdgeStyle;rounded=0;orthogonalLoop=1;jettySize=auto;html=1;exitX=0.5;exitY=1;exitDx=0;exitDy=0;exitPerimeter=0;entryX=0;entryY=0.5;entryDx=0;entryDy=0;startArrow=classic;startFill=1;" parent="1" source="oR3EOA6jBZrTbAOyoPTf-19" target="oR3EOA6jBZrTbAOyoPTf-14" edge="1">
          <mxGeometry relative="1" as="geometry">
            <Array as="points">
              <mxPoint x="175" y="231" />
              <mxPoint x="40" y="231" />
              <mxPoint x="40" y="391" />
            </Array>
          </mxGeometry>
        </mxCell>
        <mxCell id="oR3EOA6jBZrTbAOyoPTf-21" style="edgeStyle=orthogonalEdgeStyle;rounded=0;orthogonalLoop=1;jettySize=auto;html=1;exitX=0.145;exitY=0.855;exitDx=0;exitDy=0;exitPerimeter=0;entryX=0;entryY=0.75;entryDx=0;entryDy=0;startArrow=classic;startFill=1;" parent="1" source="oR3EOA6jBZrTbAOyoPTf-19" target="oR3EOA6jBZrTbAOyoPTf-15" edge="1">
          <mxGeometry relative="1" as="geometry">
            <Array as="points">
              <mxPoint x="10" y="163" />
              <mxPoint x="10" y="486" />
            </Array>
          </mxGeometry>
        </mxCell>
        <mxCell id="oR3EOA6jBZrTbAOyoPTf-19" value="&lt;div&gt;Load Balancer&lt;/div&gt;&lt;div&gt;&lt;br&gt;&lt;/div&gt;" style="outlineConnect=0;dashed=0;verticalLabelPosition=bottom;verticalAlign=top;align=center;html=1;shape=mxgraph.aws3.application_load_balancer;fillColor=#F58536;gradientColor=none;" parent="1" vertex="1">
          <mxGeometry x="140" y="101" width="69" height="72" as="geometry" />
        </mxCell>
        <mxCell id="oR3EOA6jBZrTbAOyoPTf-29" style="edgeStyle=orthogonalEdgeStyle;rounded=0;orthogonalLoop=1;jettySize=auto;html=1;exitX=0.5;exitY=0;exitDx=0;exitDy=0;" parent="1" source="oR3EOA6jBZrTbAOyoPTf-22" target="oR3EOA6jBZrTbAOyoPTf-5" edge="1">
          <mxGeometry relative="1" as="geometry" />
        </mxCell>
        <mxCell id="oR3EOA6jBZrTbAOyoPTf-22" value="Notification" style="whiteSpace=wrap;html=1;aspect=fixed;" parent="1" vertex="1">
          <mxGeometry x="224" y="281" width="60" height="60" as="geometry" />
        </mxCell>
        <mxCell id="oR3EOA6jBZrTbAOyoPTf-26" style="edgeStyle=orthogonalEdgeStyle;rounded=0;orthogonalLoop=1;jettySize=auto;html=1;exitX=0;exitY=0.75;exitDx=0;exitDy=0;entryX=0;entryY=0.5;entryDx=0;entryDy=0;" parent="1" source="oR3EOA6jBZrTbAOyoPTf-23" target="oR3EOA6jBZrTbAOyoPTf-9" edge="1">
          <mxGeometry relative="1" as="geometry" />
        </mxCell>
        <mxCell id="oR3EOA6jBZrTbAOyoPTf-28" style="edgeStyle=orthogonalEdgeStyle;rounded=0;orthogonalLoop=1;jettySize=auto;html=1;entryX=0.25;entryY=1;entryDx=0;entryDy=0;" parent="1" source="oR3EOA6jBZrTbAOyoPTf-23" target="oR3EOA6jBZrTbAOyoPTf-22" edge="1">
          <mxGeometry relative="1" as="geometry">
            <Array as="points">
              <mxPoint x="239" y="381" />
            </Array>
          </mxGeometry>
        </mxCell>
        <mxCell id="oR3EOA6jBZrTbAOyoPTf-42" style="edgeStyle=orthogonalEdgeStyle;rounded=0;orthogonalLoop=1;jettySize=auto;html=1;startArrow=classic;startFill=1;" parent="1" source="oR3EOA6jBZrTbAOyoPTf-23" target="oR3EOA6jBZrTbAOyoPTf-41" edge="1">
          <mxGeometry relative="1" as="geometry" />
        </mxCell>
        <mxCell id="oR3EOA6jBZrTbAOyoPTf-23" value="Event Engine" style="whiteSpace=wrap;html=1;aspect=fixed;" parent="1" vertex="1">
          <mxGeometry x="289" y="361" width="60" height="55" as="geometry" />
        </mxCell>
        <mxCell id="oR3EOA6jBZrTbAOyoPTf-33" style="edgeStyle=orthogonalEdgeStyle;rounded=0;orthogonalLoop=1;jettySize=auto;html=1;exitX=0.5;exitY=1;exitDx=0;exitDy=0;exitPerimeter=0;" parent="1" source="oR3EOA6jBZrTbAOyoPTf-32" edge="1">
          <mxGeometry relative="1" as="geometry">
            <mxPoint x="170" y="100" as="targetPoint" />
          </mxGeometry>
        </mxCell>
        <mxCell id="oR3EOA6jBZrTbAOyoPTf-32" value="&lt;div align=&quot;right&quot;&gt;Users&lt;/div&gt;" style="outlineConnect=0;dashed=0;verticalLabelPosition=bottom;verticalAlign=top;align=right;html=1;shape=mxgraph.aws3.users;fillColor=#D2D3D3;gradientColor=none;" parent="1" vertex="1">
          <mxGeometry x="137" y="10" width="66" height="63" as="geometry" />
        </mxCell>
        <mxCell id="oR3EOA6jBZrTbAOyoPTf-34" value="" style="whiteSpace=wrap;html=1;aspect=fixed;" parent="1" vertex="1">
          <mxGeometry x="114.5" y="550" width="130" height="130" as="geometry" />
        </mxCell>
        <mxCell id="oR3EOA6jBZrTbAOyoPTf-35" value="&lt;font color=&quot;#ffffff&quot;&gt;EC2&lt;/font&gt;" style="sketch=0;points=[[0,0,0],[0.25,0,0],[0.5,0,0],[0.75,0,0],[1,0,0],[0,1,0],[0.25,1,0],[0.5,1,0],[0.75,1,0],[1,1,0],[0,0.25,0],[0,0.5,0],[0,0.75,0],[1,0.25,0],[1,0.5,0],[1,0.75,0]];outlineConnect=0;fontColor=#232F3E;gradientColor=#F78E04;gradientDirection=north;fillColor=#D05C17;strokeColor=#ffffff;dashed=0;verticalLabelPosition=bottom;verticalAlign=top;align=center;html=1;fontSize=12;fontStyle=0;aspect=fixed;shape=mxgraph.aws4.resourceIcon;resIcon=mxgraph.aws4.ec2;" parent="1" vertex="1">
          <mxGeometry x="200" y="550" width="34" height="34" as="geometry" />
        </mxCell>
        <mxCell id="oR3EOA6jBZrTbAOyoPTf-39" style="edgeStyle=orthogonalEdgeStyle;rounded=0;orthogonalLoop=1;jettySize=auto;html=1;entryX=0;entryY=0.5;entryDx=0;entryDy=0;" parent="1" source="oR3EOA6jBZrTbAOyoPTf-36" target="oR3EOA6jBZrTbAOyoPTf-13" edge="1">
          <mxGeometry relative="1" as="geometry">
            <Array as="points">
              <mxPoint x="70" y="590" />
              <mxPoint x="70" y="311" />
            </Array>
          </mxGeometry>
        </mxCell>
        <mxCell id="oR3EOA6jBZrTbAOyoPTf-36" value="VTS" style="whiteSpace=wrap;html=1;aspect=fixed;" parent="1" vertex="1">
          <mxGeometry x="124" y="560" width="50" height="50" as="geometry" />
        </mxCell>
        <mxCell id="oR3EOA6jBZrTbAOyoPTf-40" style="edgeStyle=orthogonalEdgeStyle;rounded=0;orthogonalLoop=1;jettySize=auto;html=1;exitX=0;exitY=0.5;exitDx=0;exitDy=0;entryX=0.5;entryY=0;entryDx=0;entryDy=0;startArrow=classic;startFill=1;" parent="1" source="oR3EOA6jBZrTbAOyoPTf-37" target="oR3EOA6jBZrTbAOyoPTf-13" edge="1">
          <mxGeometry relative="1" as="geometry">
            <Array as="points">
              <mxPoint x="50" y="644" />
              <mxPoint x="50" y="261" />
              <mxPoint x="154" y="261" />
            </Array>
          </mxGeometry>
        </mxCell>
        <mxCell id="oR3EOA6jBZrTbAOyoPTf-37" value="Thales&lt;br&gt;Sim." style="whiteSpace=wrap;html=1;aspect=fixed;" parent="1" vertex="1">
          <mxGeometry x="124" y="620" width="50" height="48" as="geometry" />
        </mxCell>
        <mxCell id="oR3EOA6jBZrTbAOyoPTf-41" value="&lt;span style=&quot;background-color: rgb(36, 31, 49);&quot;&gt;&lt;font color=&quot;#ffffff&quot;&gt;MSK&lt;/font&gt;&lt;/span&gt;" style="sketch=0;points=[[0,0,0],[0.25,0,0],[0.5,0,0],[0.75,0,0],[1,0,0],[0,1,0],[0.25,1,0],[0.5,1,0],[0.75,1,0],[1,1,0],[0,0.25,0],[0,0.5,0],[0,0.75,0],[1,0.25,0],[1,0.5,0],[1,0.75,0]];outlineConnect=0;fontColor=#232F3E;gradientColor=#945DF2;gradientDirection=north;fillColor=#5A30B5;strokeColor=#ffffff;dashed=0;verticalLabelPosition=bottom;verticalAlign=top;align=center;html=1;fontSize=12;fontStyle=0;aspect=fixed;shape=mxgraph.aws4.resourceIcon;resIcon=mxgraph.aws4.managed_streaming_for_kafka;" parent="1" vertex="1">
          <mxGeometry x="590" y="349" width="78" height="78" as="geometry" />
        </mxCell>
      </root>
    </mxGraphModel>
  </diagram>
</mxfile>
